HIERARCHY
ROOT Hips
{
	OFFSET 0.000000 0.000000 0.000000
	CHANNELS 6 Xposition Yposition Zposition Zrotation Yrotation Xrotation 
	JOINT LHipJoint
	{
		OFFSET 0.000000 0.000000 0.000000
		CHANNELS 3 Zrotation Yrotation Xrotation
		JOINT LeftUpLeg
		{
			OFFSET 8.178360 -10.767780 5.035740
			CHANNELS 3 Zrotation Yrotation Xrotation
			JOINT LeftLeg
			{
				OFFSET 14.688660 -40.356780 0.000000
				CHANNELS 3 Zrotation Yrotation Xrotation
				JOINT LeftFoot
				{
					OFFSET 15.373200 -42.237540 0.000000
					CHANNELS 3 Zrotation Yrotation Xrotation
					JOINT LeftToeBase
					{
						OFFSET 0.945840 -2.598660 13.935300
						CHANNELS 3 Zrotation Yrotation Xrotation
						End Site
						{
							OFFSET 0.000000 0.000000 0.000000
						}
					}
				}
			}
		}
	}
	JOINT RHipJoint
	{
		OFFSET 0.000000 0.000000 0.000000
		CHANNELS 3 Zrotation Yrotation Xrotation
		JOINT RightUpLeg
		{
			OFFSET -7.833120 -10.767780 5.035740
			CHANNELS 3 Zrotation Yrotation Xrotation
			JOINT RightLeg
			{
				OFFSET -15.255180 -41.913300 0.000000
				CHANNELS 3 Zrotation Yrotation Xrotation
				JOINT RightFoot
				{
					OFFSET -15.409560 -42.337380 0.000000
					CHANNELS 3 Zrotation Yrotation Xrotation
					JOINT RightToeBase
					{
						OFFSET -0.988380 -2.715540 14.178900
						CHANNELS 3 Zrotation Yrotation Xrotation
						End Site
						{
							OFFSET 0.000000 0.000000 0.000000
						}
					}
				}
			}
		}
	}
	JOINT LowerBack
	{
		OFFSET 0.000000 0.000000 0.000000
		CHANNELS 3 Zrotation Yrotation Xrotation
		JOINT Spine
		{
			OFFSET 0.169620 12.213540 -1.160280
			CHANNELS 3 Zrotation Yrotation Xrotation
			JOINT Spine1
			{
				OFFSET 0.340320 12.293100 -0.256500
				CHANNELS 3 Zrotation Yrotation Xrotation
				JOINT Neck
				{
					OFFSET 0.000000 0.000000 0.000000
					CHANNELS 3 Zrotation Yrotation Xrotation
					JOINT Neck1
					{
						OFFSET -0.325020 10.477440 1.032120
						CHANNELS 3 Zrotation Yrotation Xrotation
						JOINT Head
						{
							OFFSET 0.624420 10.568160 -0.743820
							CHANNELS 3 Zrotation Yrotation Xrotation
							End Site
							{
								OFFSET 0.000000 0.000000 0.000000
							}
						}
					}
				}
				JOINT LeftShoulder
				{
					OFFSET 0.000000 0.000000 0.000000
					CHANNELS 3 Zrotation Yrotation Xrotation
					JOINT LeftArm
					{
						OFFSET 20.174460 7.205340 -1.867260
						CHANNELS 3 Zrotation Yrotation Xrotation
						JOINT LeftForeArm
						{
							OFFSET 29.898000 -0.000000 -0.000000
							CHANNELS 3 Zrotation Yrotation Xrotation
							JOINT LeftHand
							{
								OFFSET 20.901360 -0.000000 -0.000000
								CHANNELS 3 Zrotation Yrotation Xrotation
								JOINT LeftFingerBase
								{
									OFFSET 0.000000 0.000000 0.000000
									CHANNELS 3 Zrotation Yrotation Xrotation
									JOINT LeftHandIndex1
									{
										OFFSET 4.291560 -0.000000 -0.000000
										CHANNELS 3 Zrotation Yrotation Xrotation
										End Site
										{
											OFFSET 0.000000 0.000000 0.000000
										}
									}
								}
								JOINT LThumb
								{
									OFFSET 0.000000 0.000000 0.000000
									CHANNELS 3 Zrotation Yrotation Xrotation
									End Site
									{
										OFFSET 0.000000 0.000000 0.000000
									}
								}
							}
						}
					}
				}
				JOINT RightShoulder
				{
					OFFSET 0.000000 0.000000 0.000000
					CHANNELS 3 Zrotation Yrotation Xrotation
					JOINT RightArm
					{
						OFFSET -18.819600 8.244300 -2.427900
						CHANNELS 3 Zrotation Yrotation Xrotation
						JOINT RightForeArm
						{
							OFFSET -31.451400 -0.000000 -0.000000
							CHANNELS 3 Zrotation Yrotation Xrotation
							JOINT RightHand
							{
								OFFSET -20.665020 -0.000000 -0.000000
								CHANNELS 3 Zrotation Yrotation Xrotation
								JOINT RightFingerBase
								{
									OFFSET 0.000000 0.000000 0.000000
									CHANNELS 3 Zrotation Yrotation Xrotation
									JOINT RightHandIndex1
									{
										OFFSET -3.735180 -0.000000 -0.000000
										CHANNELS 3 Zrotation Yrotation Xrotation
										End Site
										{
											OFFSET 0.000000 0.000000 0.000000
										}
									}
								}
								JOINT RThumb
								{
									OFFSET 0.000000 0.000000 0.000000
									CHANNELS 3 Zrotation Yrotation Xrotation
									End Site
									{
										OFFSET 0.000000 0.000000 0.000000
									}
								}
							}
						}
					}
				}
			}
		}
	}
}
MOTION
Frames:	11
Frame Time:	0.0333333
56.626500 107.402034 -124.420230 -7.053660 79.456961 -5.441999 -3.165442 1.658550 2.790463 -13.047552 -3.446546 -8.032890 -0.305641 6.698749 20.060616 -0.157048 2.055026 -5.037140 0.129400 -2.318600 -6.386900 0.223841 -1.175600 0.673269 8.733480 12.406587 -14.028551 -2.953141 -10.986920 33.039999 -0.883798 2.850729 -4.775666 -0.171000 -2.663900 7.344400 -3.969458 -2.747281 7.565135 2.179158 -3.911560 0.954477 4.082221 -2.001113 -4.620853 -15.224013 -15.655557 -0.500719 8.535657 -21.666243 23.442048 3.678000 -10.219500 14.423300 -6.579436 -0.732726 -1.240973 -82.617726 0.007635 19.367145 14.200794 -20.020359 -2.919411 -1.572910 -2.240348 5.555629 21.555916 22.994322 10.246200 -7.125000 0.000000 0.000000 -7.472700 57.002500 -2.206100 5.360313 1.807635 -0.715257 86.862251 -2.848454 5.067729 -15.617536 22.861869 -3.263999 0.509900 -0.233769 8.113477 -20.368790 9.015044 -3.477400 7.125000 0.000000 0.000000 4.317000 -20.206900 2.567400 
56.847336 107.433240 -123.512880 -1.820823 81.307723 -0.752554 -3.229763 1.704728 2.870287 -13.523719 -3.369905 -6.733255 -0.509484 6.097070 18.421707 -0.026055 1.016788 -4.011189 0.194400 -2.839100 -7.831200 0.130800 -1.254159 0.689803 6.277667 11.390646 -13.475812 -2.691033 -10.680424 31.772180 -0.646971 1.580572 -4.145484 -0.227800 -3.072200 8.479800 -4.885990 -2.630487 8.160705 2.030514 -3.853006 1.136307 4.356048 -1.980387 -4.642832 -15.983789 -15.287929 -0.707067 9.514695 -21.153635 23.921341 4.304000 -9.950900 14.925000 -6.588445 -0.671681 -1.245344 -82.389473 0.462916 19.998665 14.293729 -20.137307 -2.988511 -0.868279 -2.304835 5.145638 13.304852 22.182606 5.904000 -7.125000 0.000000 0.000000 -16.355700 54.436300 -3.870500 5.348237 1.824807 -0.701048 86.742282 -3.040764 3.282772 -15.705235 23.015480 -3.304700 0.479225 -0.232531 7.697155 -19.418418 9.329005 -3.415100 7.125000 0.000000 0.000000 5.024100 -19.932000 3.022000 
57.073572 107.522658 -122.557524 -3.565455 82.588698 -2.208031 -3.215760 1.763768 2.921193 -12.640571 -3.363046 -6.670656 -0.594484 5.827288 17.623617 0.138635 -0.117288 -3.276327 0.218800 -3.010900 -8.309200 0.076411 -1.268822 0.685893 5.111926 10.250524 -13.537202 -2.351188 -10.167242 29.980944 -0.173432 -0.649789 -1.507438 -0.535900 -4.690500 13.028000 -4.407083 -2.532084 7.968539 2.143461 -3.657376 1.194234 4.257277 -1.896073 -4.479744 -15.844708 -15.049725 -1.196986 9.557374 -20.756977 24.353869 4.365400 -9.713100 15.182600 -6.584531 -0.644615 -1.260870 -82.242132 0.866149 20.086922 14.147731 -19.994675 -2.914991 -1.364140 -2.239655 5.546291 19.103615 22.521560 8.814200 -7.125000 0.000000 0.000000 -10.084600 55.960900 -2.731500 5.357823 1.801350 -0.701994 86.299824 -3.041404 1.930502 -15.587753 22.894996 -3.260011 0.452757 -0.248022 7.544412 -18.662060 9.902723 -3.473700 7.125000 0.000000 0.000000 5.586000 -19.359200 3.434700 
57.473238 107.676282 -121.370532 -4.359233 83.908077 -2.994577 -3.216461 1.894618 2.998959 -11.986402 -4.666478 -5.399599 -0.779983 5.355129 16.242310 0.057927 0.312374 -2.695757 0.249600 -3.214800 -8.877300 0.047386 -1.351169 0.661793 4.122300 11.097636 -12.278094 -2.037632 -9.674967 28.158217 1.001877 -6.539741 0.044594 -0.667800 -5.226100 14.554700 -4.189278 -2.270403 7.683104 2.109730 -3.263706 1.404525 3.985470 -1.724662 -4.022024 -14.634137 -14.973759 -1.833376 9.245489 -20.676844 24.644025 4.023100 -9.505000 15.201400 -6.582961 -0.656312 -1.254092 -81.750976 0.965692 20.188285 13.879445 -19.667328 -2.801418 -1.547401 -2.236284 5.730304 21.127482 22.988859 10.020200 -7.125000 0.000000 0.000000 -7.965400 56.898200 -2.332700 5.378650 1.745193 -0.720534 86.356763 -3.030065 0.050818 -15.639224 23.016468 -3.286727 0.437995 -0.262761 6.972076 -18.223509 10.610216 -3.627000 7.125000 0.000000 0.000000 5.913000 -18.628100 3.734400 
57.844698 107.661282 -120.021510 -4.470951 85.350375 -2.956617 -3.201055 1.961182 3.056471 -11.190464 -4.978879 -5.021765 -0.882928 4.990289 15.202289 0.204113 -0.727345 -1.850498 0.226400 -3.063000 -8.454100 -0.027867 -1.421041 0.668831 2.900771 8.789658 -12.359587 -1.793018 -9.204853 26.429009 1.570443 -9.573657 2.632982 -1.400300 -7.485600 21.162300 -4.192427 -2.240263 7.444260 2.219496 -3.217966 1.474390 4.119416 -1.710061 -3.756226 -13.419536 -14.583081 -2.625604 8.524406 -20.061471 24.996492 3.590100 -9.111400 15.132600 -6.595665 -0.688207 -1.248509 -81.781317 1.074763 18.732691 13.468368 -19.084558 -2.616626 -1.606337 -2.183013 7.096350 21.080997 22.912447 9.967600 -7.125000 0.000000 0.000000 -7.966700 56.794300 -2.313000 5.408744 1.661703 -0.759140 85.946656 -3.332245 0.683741 -15.612657 22.934300 -3.252257 0.546844 -0.264391 8.090697 -21.722984 9.635573 -3.991600 7.125000 0.000000 0.000000 3.333600 -19.419400 2.039000 
58.308576 107.700288 -118.518264 -3.737519 86.676565 -2.235911 -3.166923 2.040987 3.129146 -10.476698 -5.130061 -4.572938 -0.944586 4.735577 14.479530 0.326885 -1.529987 -1.631978 0.300500 -3.524700 -9.743200 -0.070886 -1.514427 0.688381 1.984739 8.222469 -11.378149 -1.575866 -8.748862 24.806219 2.132065 -12.536766 4.180187 -1.611800 -8.005900 22.731900 -4.001220 -2.118332 7.516698 2.218446 -3.050809 1.343166 4.022082 -1.611367 -4.077734 -13.807974 -14.279070 -2.545949 8.699062 -19.562872 25.434769 3.859100 -8.909300 15.384400 -6.601117 -0.635345 -1.259767 -81.289477 1.925781 18.538951 13.125666 -18.645965 -2.482139 -1.617829 -2.143701 7.397132 21.007355 22.587075 9.805300 -7.125000 0.000000 0.000000 -7.888200 56.413200 -2.217200 5.387640 1.642706 -0.778951 86.023770 -4.073804 -0.616484 -15.837767 23.241535 -3.338520 0.590838 -0.258079 8.918448 -23.316495 8.849284 -3.966500 7.125000 0.000000 0.000000 2.136300 -20.167900 1.269600 
58.779054 107.507052 -116.773176 -16.532575 87.365619 -15.234354 -3.003444 2.279792 3.238811 -8.972946 -6.045950 -4.041324 -0.942896 4.786302 14.458940 0.332741 -1.440617 -1.468619 0.472700 -4.409600 -12.231900 -0.036380 -1.476942 0.661176 1.940431 8.727889 -9.666059 -1.401431 -8.326816 23.549198 2.441078 -14.001820 4.540037 -1.541300 -7.837000 22.220000 -3.151783 -1.870261 7.565076 2.240514 -2.644957 1.366507 3.534453 -1.388198 -4.166915 -13.627666 -14.063324 -2.659151 8.569506 -19.231756 25.961934 3.863600 -8.727800 15.600300 -6.630526 -0.610825 -1.243054 -81.143989 1.982519 14.759249 12.652977 -17.968295 -2.270406 -1.726667 -2.054807 10.447127 20.899598 22.928298 9.873600 -7.125000 0.000000 0.000000 -8.152800 56.737100 -2.356200 5.391154 1.653590 -0.787745 86.006817 -4.435623 -1.484646 -15.994258 23.469410 -3.403966 0.606661 -0.253230 8.241902 -23.765207 8.892986 -4.071700 7.125000 0.000000 0.000000 1.806700 -20.085500 1.076900 
59.269332 107.309622 -114.800652 -36.008189 87.665388 -34.951625 -2.724048 2.543146 3.363418 -7.431492 -6.607998 -3.369419 -0.977927 4.657487 13.966185 0.285631 -1.041632 -1.104410 0.869200 -5.944500 -16.623500 0.063623 -1.401318 0.626669 2.287662 9.270034 -8.333644 -1.384030 -8.222918 23.314194 2.153423 -13.207016 6.429331 -1.058300 -6.540800 18.361900 -2.246808 -1.667515 7.555716 2.243609 -2.295941 1.420301 3.086390 -1.192542 -4.139522 -12.823763 -13.321662 -2.936673 8.124065 -18.119604 26.203144 3.748900 -8.191300 15.434200 -6.606138 -0.609214 -1.244943 -80.208031 2.506000 14.265647 12.495303 -17.839613 -2.220442 -1.741008 -2.123875 9.727420 21.195320 23.622158 10.300300 -7.125000 0.000000 0.000000 -8.132900 57.568200 -2.513900 5.397050 1.606635 -0.806001 85.762060 -4.457085 -1.319146 -15.759677 23.153746 -3.305526 0.619210 -0.246275 7.418841 -23.898672 8.773242 -4.045100 7.125000 0.000000 0.000000 1.699700 -20.204600 1.008500 
59.769816 106.941162 -112.628292 -31.685392 88.869657 -30.965783 -2.714026 2.584450 3.387285 -7.034591 -7.300330 -2.754598 -0.965911 4.713670 14.090960 0.271018 -0.915556 -1.191001 1.063500 -6.556400 -18.407500 -0.061429 -1.445968 0.676028 1.540440 9.671079 -7.018362 -1.429206 -8.302353 23.664366 1.452890 -10.214820 7.669935 -0.392300 -4.021600 11.137400 -2.840213 -1.543991 7.666759 2.139031 -2.207739 1.400879 3.218054 -1.135495 -4.229992 -12.793376 -12.749923 -3.459912 7.609330 -17.130879 26.807834 3.694400 -7.790900 15.675700 -6.608447 -0.619596 -1.244594 -79.744103 3.052198 12.576983 12.317598 -17.648073 -2.153230 -1.709805 -2.090506 9.527101 20.908823 23.073363 9.939800 -7.125000 0.000000 0.000000 -8.194800 56.899100 -2.400600 5.368164 1.542160 -0.849997 85.937081 -4.993909 -1.955887 -16.385889 24.050218 -3.588822 0.575914 -0.229169 7.936747 -22.775847 8.615649 -3.756900 7.125000 0.000000 0.000000 2.532200 -20.479300 1.487700 
60.169482 106.494090 -110.142084 -100.448545 89.125251 -99.989255 -2.157568 2.573996 3.228666 -5.859406 -8.540899 -2.707317 -0.814262 5.124865 15.328755 0.284622 -0.980841 -1.255746 1.367000 -7.399800 -20.905500 0.345574 -1.461377 0.860390 1.865148 10.389289 -5.715027 -1.429477 -8.489741 24.228539 0.949782 -6.980093 4.711957 -0.007200 0.549800 -1.510700 -2.462948 -1.536673 7.710545 2.153832 -2.154224 1.467271 3.297778 -1.124361 -4.092857 -12.675041 -11.890051 -4.540878 7.080014 -15.664594 27.348720 3.665800 -7.181600 15.952100 -6.603914 -0.666170 -1.251933 -79.210334 3.425631 11.591476 12.342251 -17.756518 -2.170039 -1.597035 -2.118177 9.794821 19.488623 23.212281 9.251800 -7.125000 0.000000 0.000000 -9.917800 56.739800 -2.873300 5.362814 1.455124 -0.874743 85.845271 -4.459168 -2.507337 -16.249828 23.880636 -3.528818 0.582524 -0.257779 8.900035 -23.299202 8.919261 -3.992900 7.125000 0.000000 0.000000 2.157200 -20.092100 1.285700 
60.482130 106.078218 -107.372634 -171.942911 88.312944 -171.847639 -2.521841 2.311953 3.142550 -4.434971 -10.298663 -2.482105 -0.672883 5.512209 16.410420 0.267274 -0.833123 -0.776856 1.754100 -8.334000 -23.733200 -0.155548 -1.803519 0.948069 2.815178 10.187474 -4.743426 -1.424519 -8.572455 24.483829 0.928622 -6.401201 1.797971 -0.629200 5.075700 -14.124700 -2.881220 -1.488823 8.052537 2.173561 -2.089130 1.507292 3.331470 -1.142818 -4.166309 -12.979124 -10.534821 -5.563875 6.869310 -13.374228 28.082112 4.022300 -6.275300 16.322400 -6.587542 -0.768384 -1.250768 -78.655019 3.553057 10.771854 12.454881 -17.986755 -2.221338 -1.541602 -2.136666 10.032095 18.813506 23.428892 8.972700 -7.125000 0.000000 0.000000 -10.816700 56.821800 -3.159400 5.339883 1.353803 -0.922807 85.649280 -4.325339 -1.898686 -16.522717 24.252857 -3.650903 0.588777 -0.238850 7.799761 -23.317349 8.841311 -3.958800 7.125000 0.000000 0.000000 2.140900 -20.184300 1.271600 
